<svg width="146" height="48" viewBox="0 0 146 48" fill="none" xmlns="http://www.w3.org/2000/svg">
<path d="M33.6435 31.0088C35.2386 31.0088 36.5438 32.3139 36.5438 33.9091C36.5438 35.5043 35.2386 36.8094 33.6435 36.8094C32.0483 36.8094 30.7432 35.5043 30.7432 33.9091C30.7432 32.3139 32.0241 31.0088 33.6435 31.0088Z" fill="black"/>
<path d="M3.96375 9.20801C6.16314 9.20801 7.92749 10.9724 7.92749 13.1718C7.92749 15.3711 6.16314 17.1355 3.96375 17.1355C1.76435 17.1355 0 15.3711 0 13.1718C0 10.9965 1.78852 9.20801 3.96375 9.20801Z" fill="black"/>
<path d="M13.1723 10.2715C14.7674 10.2715 16.0726 11.5766 16.0726 13.1718C16.0726 14.767 14.7674 16.0721 13.1723 16.0721C11.5771 16.0721 10.272 14.767 10.272 13.1718C10.272 11.5766 11.5771 10.2715 13.1723 10.2715Z" fill="black"/>
<path d="M23.4442 10.2715C25.0394 10.2715 26.3445 11.5766 26.3445 13.1718C26.3445 14.767 25.0394 16.0721 23.4442 16.0721C21.8491 16.0721 20.5439 14.767 20.5439 13.1718C20.5439 11.5766 21.8491 10.2715 23.4442 10.2715Z" fill="black"/>
<path d="M33.8611 10.2715C35.4562 10.2715 36.7614 11.5766 36.7614 13.1718C36.7614 14.767 35.4562 16.0721 33.8611 16.0721C32.2659 16.0721 30.9608 14.767 30.9608 13.1718C30.9366 11.5766 32.2417 10.2715 33.8611 10.2715Z" fill="black"/>
<path d="M3.96375 29.9697C6.16314 29.9697 7.92749 31.7341 7.92749 33.9335C7.92749 36.1329 6.16314 37.8972 3.96375 37.8972C1.76435 37.8972 0 36.1329 0 33.9335C0 31.7341 1.78852 29.9697 3.96375 29.9697Z" fill="#ED037D"/>
<path d="M13.1723 31.0088C14.7674 31.0088 16.0726 32.3139 16.0726 33.9091C16.0726 35.5043 14.7674 36.8094 13.1723 36.8094C11.5771 36.8094 10.272 35.5043 10.272 33.9091C10.272 32.3139 11.5771 31.0088 13.1723 31.0088Z" fill="black"/>
<path d="M23.4442 31.0088C25.0394 31.0088 26.3445 32.3139 26.3445 33.9091C26.3445 35.5043 25.0394 36.8094 23.4442 36.8094C21.8491 36.8094 20.5439 35.5043 20.5439 33.9091C20.5439 32.3139 21.8491 31.0088 23.4442 31.0088Z" fill="black"/>
<path d="M13.1722 19.4082C15.3716 19.4082 17.136 21.1726 17.136 23.372C17.136 25.5714 15.3716 27.3357 13.1722 27.3357C10.9728 27.3357 9.2085 25.5714 9.2085 23.372C9.2085 21.1726 10.9728 19.4082 13.1722 19.4082Z" fill="black"/>
<path d="M24.5077 19.4082C26.7071 19.4082 28.4714 21.1726 28.4714 23.372C28.4714 25.5714 26.7071 27.3357 24.5077 27.3357C22.3083 27.3357 20.5439 25.5714 20.5439 23.372C20.5439 21.1726 22.3083 19.4082 24.5077 19.4082Z" fill="#ED037D"/>
<path d="M33.8611 20.4717C35.4562 20.4717 36.7614 21.7768 36.7614 23.372C36.7614 24.9671 35.4562 26.2723 33.8611 26.2723C32.2659 26.2723 30.9608 24.9671 30.9608 23.372C30.9366 21.7768 32.2417 20.4717 33.8611 20.4717Z" fill="black"/>
<path d="M13.1723 41.1357C14.7674 41.1357 16.0726 42.4409 16.0726 44.036C16.0726 45.6312 14.7674 46.9363 13.1723 46.9363C11.5771 46.9363 10.272 45.6312 10.272 44.036C10.272 42.4409 11.5771 41.1357 13.1723 41.1357Z" fill="black"/>
<path d="M3.96375 40.0723C6.16314 40.0723 7.92749 41.8366 7.92749 44.036C7.92749 46.2354 6.16314 47.9998 3.96375 47.9998C1.76435 47.9998 0 46.2354 0 44.036C0 41.8608 1.78852 40.0723 3.96375 40.0723Z" fill="black"/>
<path d="M43.988 0C45.5832 0 46.8883 1.30514 46.8883 2.9003C46.8883 4.49547 45.5832 5.8006 43.988 5.8006C42.3929 5.8006 41.0877 4.49547 41.0877 2.9003C41.0636 1.30514 42.3687 0 43.988 0Z" fill="black"/>
<path d="M33.7162 0C35.3114 0 36.6165 1.30514 36.6165 2.9003C36.6165 4.49547 35.3114 5.8006 33.7162 5.8006C32.1211 5.8006 30.8159 4.49547 30.8159 2.9003C30.8159 1.30514 32.0969 0 33.7162 0Z" fill="#ED037D"/>
<path d="M13.1723 0C14.7674 0 16.0726 1.30514 16.0726 2.9003C16.0726 4.49547 14.7674 5.8006 13.1723 5.8006C11.5771 5.8006 10.272 4.49547 10.272 2.9003C10.272 1.30514 11.5771 0 13.1723 0Z" fill="black"/>
<path d="M121.788 9.281H131.287V11.7704H124.568V14.3082H130.513V16.7251H124.568V19.3354H131.359V21.8006H121.813V9.281H121.788ZM107.625 9.281H110.671L113.933 18.1269L117.196 9.281H120.169L115.069 21.9456H112.652L107.625 9.281ZM103.323 9.281H106.078V21.8248H103.323V9.281ZM95.033 11.8429H91.2143V9.30517H101.631V11.8429H97.8125V21.8248H95.0572V11.8429H95.033ZM87.1781 16.5801L85.4862 12.5438L83.7944 16.5801H87.1781ZM84.2778 9.13598H86.8155L92.2052 21.8006H89.3049L88.169 18.9728H82.8518L81.7158 21.8006H78.888L84.2778 9.13598ZM68.0602 9.281H77.5587V11.7704H70.7672V14.3082H76.7128V16.7251H70.7672V19.3354H77.5587V21.8006H68.0602V9.281ZM60.7611 15.3716C62.1146 15.3716 62.888 14.6707 62.888 13.6073V13.5348C62.888 12.3263 62.0421 11.7704 60.6886 11.7704H58.0059V15.3716H60.7611ZM55.2264 9.281H60.9545C62.5738 9.281 63.7823 9.71605 64.6282 10.562C65.3291 11.2629 65.6917 12.2538 65.6917 13.4623V13.5348C65.6917 15.5892 64.6282 16.8701 63.0089 17.426L66.0542 21.8973H62.7914L60.1086 17.8611H57.9817V21.8973H55.2264V9.281ZM41.8608 15.5892C41.8608 11.9879 44.5436 9.06348 48.3865 9.06348C50.7309 9.06348 52.1327 9.83689 53.3412 10.9728L51.6494 13.0272C50.6584 12.1813 49.6675 11.6012 48.459 11.6012C46.3321 11.6012 44.8578 13.3656 44.8578 15.4925V15.565C44.8578 17.6919 46.3563 19.5287 48.459 19.5287C49.885 19.5287 50.8034 18.9728 51.7944 18.0302L53.5587 19.7946C52.2778 21.2206 50.8759 22.0665 48.3865 22.0665C44.6161 22.0182 41.8608 19.1904 41.8608 15.5892ZM143.178 12.8339C143.178 11.9154 142.816 11.3354 142.187 11.3354C141.559 11.3354 141.196 11.8188 141.196 12.8822V15.2991H143.251V12.8339H143.178ZM139.432 13.3898C139.432 12.4713 139.142 11.8913 138.441 11.8913C137.813 11.8913 137.45 12.3988 137.45 13.2447V15.2991H139.432V13.3898ZM135.686 17.281V12.9547C135.686 11.8913 135.976 11.0453 136.532 10.4653C136.967 10.0302 137.45 9.83689 138.078 9.83689C139.142 9.83689 139.698 10.3928 140.133 11.0454C140.568 9.98191 141.196 9.281 142.405 9.281C144.096 9.281 144.942 10.707 144.942 12.7372V17.2085H135.661V17.281H135.686ZM141.051 22.2357L138.006 23.5166L141.051 24.7976V22.2357ZM135.613 24.4351V22.5257L145.039 18.4895V20.6163L142.912 21.4623V25.426L145.039 26.2719V28.3988L135.613 24.4351ZM135.686 36.0363V33.9819H143.202V29.3173H145.039V36.0363H135.686Z" fill="black"/>
<path d="M124.133 27.4077H125.051L130.514 34.2718V27.4077H131.432V35.9878H130.659L125.148 28.9062V35.9878H124.23V27.4077H124.133ZM121.233 31.734C121.233 29.7521 119.807 28.1328 117.825 28.1328C115.843 28.1328 114.417 29.7038 114.417 31.6857C114.417 33.6675 115.843 35.2385 117.825 35.2385C119.807 35.2627 121.233 33.7159 121.233 31.734ZM113.45 31.734C113.45 29.3171 115.215 27.2627 117.849 27.2627C120.459 27.2627 122.248 29.3171 122.248 31.6615C122.248 34.0059 120.483 36.1328 117.849 36.1328C115.215 36.1811 113.45 34.1267 113.45 31.734ZM110.526 27.4077H111.517V35.9878H110.526V27.4077ZM105.16 28.3261H102.26V27.4077H108.979V28.3261H106.151V36.0361H105.16V28.3261ZM93.4623 31.734C93.4623 29.2687 95.2992 27.2627 97.7886 27.2627C99.3354 27.2627 100.254 27.8186 101.124 28.6162L100.496 29.3171C99.7947 28.6162 98.9487 28.1086 97.8128 28.1086C95.9034 28.1086 94.4774 29.6796 94.4774 31.6615C94.4774 33.6434 95.8793 35.2144 97.8128 35.2144C99.0212 35.2144 99.7947 34.7793 100.568 33.9334L101.196 34.5618C100.278 35.4802 99.2871 36.0603 97.7161 36.0603C95.3234 36.1811 93.4623 34.1993 93.4623 31.734ZM84.5439 32.4349V27.4077H85.5348V32.3624C85.5348 34.1993 86.5258 35.2627 88.1451 35.2627C89.6919 35.2627 90.7554 34.2718 90.7554 32.4349V27.4077H91.7463V32.3624C91.7463 34.8277 90.3203 36.1811 88.1451 36.1811C85.9699 36.1086 84.5439 34.8518 84.5439 32.4349ZM79.5892 31.8065C80.8702 31.8065 81.7886 31.1781 81.7886 30.0422C81.7886 28.9787 81.0152 28.3503 79.5892 28.3503H76.9789V31.8307H79.5892V31.8065ZM75.988 27.4077H79.6617C80.7252 27.4077 81.5711 27.7702 82.1512 28.2536C82.5862 28.6887 82.7796 29.2446 82.7796 29.9455C82.7796 31.3715 81.7886 32.2174 80.4351 32.4349L83.0454 35.9636H81.837L79.3475 32.6283H76.9306V35.9636H75.9397V27.4077H75.988ZM70.5983 28.3261H67.698V27.4077H74.417V28.3261H71.5167V36.0361H70.5258V28.3261H70.5983ZM60.1089 34.7793L60.7373 34.0784C61.6557 34.8518 62.5016 35.2869 63.7101 35.2869C64.846 35.2869 65.6194 34.6585 65.6194 33.7884C65.6194 33.015 65.1844 32.5074 63.3475 32.169C61.3657 31.734 60.4472 31.1056 60.4472 29.6796C60.4472 28.3261 61.6557 27.3352 63.275 27.3352C64.556 27.3352 65.4019 27.6977 66.3203 28.3986L65.7644 29.0996C64.991 28.4712 64.1451 28.1811 63.2992 28.1811C62.1632 28.1811 61.4623 28.8095 61.4623 29.5829C61.4623 30.3564 61.8974 30.8639 63.8067 31.2748C65.7161 31.6857 66.6345 32.4107 66.6345 33.6917C66.6345 35.1902 65.4261 36.1086 63.7342 36.1086C62.2357 36.1086 61.1965 35.6977 60.1089 34.7793ZM52.6164 27.4077H58.8521V28.2536H53.6073V31.1539H58.272V31.9999H53.6073V35.1177H58.9246V35.9636H52.6164V27.4077ZM46.1632 35.1177C48.3626 35.1177 49.7161 33.6192 49.7161 31.7098C49.7161 29.8005 48.2901 28.302 46.1632 28.302H44.1814V35.0935H46.1632V35.1177ZM43.1904 27.4077H46.1632C48.846 27.4077 50.7554 29.2446 50.7554 31.6615C50.7554 34.0784 48.9185 35.9878 46.1632 35.9878H43.1904V27.4077Z" fill="#ED037D"/>
</svg>
