<svg width="41" height="51" viewBox="0 0 41 51" fill="none" xmlns="http://www.w3.org/2000/svg">
<path d="M0 13.7839V41.3517L6.9913 37.3724V35.7808L1.39818 38.9643V14.5797L22.8182 2.38744L22.8184 8.11473L24.2165 7.3189L24.2163 0L0 13.7839Z" fill="#4F46E5"/>
<path d="M32.6034 17.6084L19.5725 25.0256V39.1213L32.6038 31.7041L32.6034 17.6084Z" fill="#4F46E5"/>
<path fillRule="evenodd" clipRule="evenodd" d="M16.7829 23.4322V51L40.9992 37.2166L41 37.2161L40.9992 9.64826L16.7829 23.4322ZM39.6011 12.0357L18.181 24.228V48.6126L39.6018 36.4203L39.6011 12.0357Z" fill="#4F46E5"/>
<path d="M32.603 4.13626L8.38665 17.9202V45.488L15.3779 41.5087V22.6382L32.6032 12.8336L32.603 4.13626Z" fill="#4F46E5"/>
</svg>
